<?xml version="1.0" encoding="UTF-8" standalone="no"?>
<!-- Created with Inkscape (http://www.inkscape.org/) -->
<svg
   xmlns:dc="http://purl.org/dc/elements/1.1/"
   xmlns:cc="http://creativecommons.org/ns#"
   xmlns:rdf="http://www.w3.org/1999/02/22-rdf-syntax-ns#"
   xmlns:svg="http://www.w3.org/2000/svg"
   xmlns="http://www.w3.org/2000/svg"
   xmlns:xlink="http://www.w3.org/1999/xlink"
   xmlns:sodipodi="http://sodipodi.sourceforge.net/DTD/sodipodi-0.dtd"
   xmlns:inkscape="http://www.inkscape.org/namespaces/inkscape"
   width="222.48572"
   height="222.48572"
   id="svg2"
   sodipodi:version="0.32"
   inkscape:version="0.46"
   sodipodi:docname="rusty.svg"
   inkscape:output_extension="org.inkscape.output.svg.inkscape"
   inkscape:export-filename="/home/juha/project/homegrown/xmltable/doc/static/logo.png"
   inkscape:export-xdpi="32.490002"
   inkscape:export-ydpi="32.490002"
   version="1.0">
  <defs
     id="defs4">
    <linearGradient
       inkscape:collect="always"
       id="linearGradient3175">
      <stop
         style="stop-color:#ffffff;stop-opacity:1;"
         offset="0"
         id="stop3177" />
      <stop
         style="stop-color:#ffffff;stop-opacity:0;"
         offset="1"
         id="stop3179" />
    </linearGradient>
    <inkscape:perspective
       sodipodi:type="inkscape:persp3d"
       inkscape:vp_x="240.32077 : 278.08761 : 1"
       inkscape:vp_y="6.4772564e-14 : 743.1685 : 0"
       inkscape:vp_z="893.23205 : 869.25309 : 1"
       inkscape:persp3d-origin="517.79605 : 902.40309 : 1"
       id="perspective10" />
    <radialGradient
       inkscape:collect="always"
       xlink:href="#linearGradient3175"
       id="radialGradient3183"
       cx="285.93997"
       cy="617.01569"
       fx="285.93997"
       fy="617.01569"
       r="98.775726"
       gradientTransform="matrix(1,0,0,1.1262468,0,-77.896228)"
       gradientUnits="userSpaceOnUse" />
  </defs>
  <sodipodi:namedview
     id="base"
     pagecolor="#ffffff"
     bordercolor="#666666"
     borderopacity="1.0"
     gridtolerance="10000"
     guidetolerance="10"
     objecttolerance="10"
     inkscape:pageopacity="0.0"
     inkscape:pageshadow="2"
     inkscape:zoom="1.4"
     inkscape:cx="215.45019"
     inkscape:cy="206.28028"
     inkscape:document-units="px"
     inkscape:current-layer="layer1"
     showgrid="false"
     inkscape:window-width="1272"
     inkscape:window-height="993"
     inkscape:window-x="0"
     inkscape:window-y="0" />
  <metadata
     id="metadata7">
    <rdf:RDF>
      <cc:Work
         rdf:about="">
        <dc:format>image/svg+xml</dc:format>
        <dc:type
           rdf:resource="http://purl.org/dc/dcmitype/StillImage" />
      </cc:Work>
    </rdf:RDF>
  </metadata>
  <g
     inkscape:label="Layer 1"
     inkscape:groupmode="layer"
     id="layer1"
     transform="translate(-0.9636892,-0.7342432)">
    <flowRoot
       xml:space="preserve"
       id="flowRoot2397"
       style="font-size:36px;font-style:normal;font-variant:normal;font-weight:normal;font-stretch:normal;text-align:start;line-height:100%;writing-mode:lr-tb;text-anchor:start;fill:#000000;fill-opacity:1;stroke:none;stroke-width:1px;stroke-linecap:butt;stroke-linejoin:miter;stroke-opacity:1;font-family:Arial;-inkscape-font-specification:Arial"><flowRegion
         id="flowRegion2399"><rect
           id="rect2401"
           width="28.571428"
           height="68.571426"
           x="228.57143"
           y="495.21933" /></flowRegion><flowPara
         id="flowPara2403"
         style="font-size:64px;font-weight:bold">X</flowPara></flowRoot>    <g
       id="g3189"
       transform="translate(-448.50773,-52.527932)">
      <path
         transform="translate(215.71428,-41.428573)"
         d="M 447.14286,205.93361 A 102.14286,102.14286 0 1 1 242.85714,205.93361 A 102.14286,102.14286 0 1 1 447.14286,205.93361 z"
         sodipodi:ry="102.14286"
         sodipodi:rx="102.14286"
         sodipodi:cy="205.93361"
         sodipodi:cx="345"
         id="path2392"
         style="opacity:1;fill:#ffffff;fill-opacity:1;stroke:#ef6400;stroke-width:18.20000076;stroke-linejoin:round;stroke-miterlimit:4;stroke-dasharray:none;stroke-dashoffset:0;stroke-opacity:1"
         sodipodi:type="arc" />
      <path
         id="text3164"
         d="M 497.63106,146.98429 C 496.54172,146.82093 495.47965,146.73923 494.44482,146.73919 C 487.41875,146.73923 483.90572,150.22502 483.90573,157.19659 L 483.90573,179.82704 L 472.38626,179.82704 L 472.38626,136.2818 L 483.25215,136.2818 L 483.25215,139.63144 C 483.25213,140.88418 483.27936,141.51054 483.33384,141.5105 C 483.3883,141.45607 483.46999,141.40161 483.57894,141.3471 C 485.75755,139.05959 487.44598,137.58902 488.64424,136.93539 C 490.55051,135.84612 493.0287,135.30147 496.07879,135.30142 C 496.56896,135.30147 497.08638,135.30147 497.63106,135.30142 L 497.63106,146.98429"
         style="font-size:81.69838715px;font-style:normal;font-variant:normal;font-weight:normal;font-stretch:normal;text-align:start;line-height:100%;writing-mode:lr-tb;text-anchor:start;fill:#ef6400;fill-opacity:1;stroke:none;stroke-width:1px;stroke-linecap:butt;stroke-linejoin:miter;stroke-opacity:1;font-family:Arial;-inkscape-font-specification:Arial" />
      <path
         id="text3168"
         d="M 533.31725,192.09244 L 522.45136,192.09244 L 522.45136,188.25261 C 522.45133,186.72758 522.4241,185.96506 522.36966,185.96506 C 522.36963,186.01953 522.3424,186.04676 522.28796,186.04676 C 519.40126,190.94866 514.98955,193.39961 509.05282,193.39961 C 504.96789,193.39961 501.5638,192.0652 498.84053,189.39639 C 495.73598,186.45525 494.18371,182.39757 494.18372,177.22333 L 494.18372,148.5472 L 505.70319,148.5472 L 505.70319,175.50767 C 505.70318,180.89977 508.15413,183.59581 513.05605,183.59581 C 515.9427,183.59581 518.14855,182.6699 519.67361,180.81806 C 521.19862,178.96624 521.96114,176.59699 521.96117,173.7103 L 521.96117,148.5472 L 533.31725,148.5472 L 533.31725,192.09244"
         style="font-size:81.69838715px;font-style:normal;font-variant:normal;font-weight:normal;font-stretch:normal;text-align:start;line-height:100%;writing-mode:lr-tb;text-anchor:start;fill:#ef6400;fill-opacity:1;stroke:none;stroke-width:1px;stroke-linecap:butt;stroke-linejoin:miter;stroke-opacity:1;font-family:Arial;-inkscape-font-specification:Arial" />
      <path
         id="text3172"
         d="M 580.27382,166.64913 C 580.27377,170.67959 579.37509,174.02922 577.57778,176.69803 C 575.5625,179.58471 572.73029,181.87226 569.08114,183.56069 C 565.64977,185.08573 562.02782,185.84825 558.21526,185.84825 C 541.22198,185.73931 532.5075,179.17622 532.07177,166.15894 L 543.91804,166.15894 C 544.02696,169.31795 545.38859,171.7689 548.00296,173.51179 C 550.29049,175.0913 553.14993,175.88105 556.58129,175.88104 C 559.74026,175.88105 562.49077,175.20023 564.83283,173.83858 C 567.22928,172.47696 568.42752,170.67959 568.42756,168.44649 C 568.48198,164.96071 565.43191,162.48253 559.27734,161.01194 C 549.09225,158.56101 543.37337,157.03598 542.12068,156.43683 C 536.02052,153.55018 532.99769,148.64828 533.05215,141.73112 C 533.10662,138.1909 534.0053,135.05913 535.7482,132.3358 C 537.54556,129.55811 540.2416,127.40672 543.83634,125.88163 C 547.26766,124.41112 550.99855,123.67583 555.02902,123.67577 C 561.1836,123.67583 566.41229,125.2281 570.71511,128.33258 C 575.61697,131.81843 578.20408,136.66587 578.47646,142.8749 L 566.71189,142.8749 C 566.43952,139.9338 565.10512,137.67348 562.70867,136.09393 C 560.58448,134.67787 558.0246,133.96982 555.02902,133.96977 C 552.41465,133.96982 550.09986,134.48724 548.08466,135.52204 C 545.63369,136.82926 544.38098,138.68109 544.32653,141.07753 C 544.32652,144.39997 547.43105,146.79646 553.64015,148.26699 C 564.09751,150.77244 569.87085,152.27024 570.96021,152.7604 C 577.16924,155.53817 580.27377,160.16774 580.27382,166.64913"
         style="font-size:81.69838715px;font-style:normal;font-variant:normal;font-weight:normal;font-stretch:normal;text-align:start;line-height:100%;writing-mode:lr-tb;text-anchor:start;fill:#ef6400;fill-opacity:1;stroke:none;stroke-width:1px;stroke-linecap:butt;stroke-linejoin:miter;stroke-opacity:1;font-family:Arial;-inkscape-font-specification:Arial" />
      <path
         id="text3176"
         d="M 621.76196,135.012 L 604.03341,135.012 L 604.03341,183.37744 L 591.69695,183.37744 L 591.69695,135.012 L 574.0501,135.012 L 574.0501,124.6363 L 621.76196,124.6363 L 621.76196,135.012"
         style="font-size:81.69838715px;font-style:normal;font-variant:normal;font-weight:normal;font-stretch:normal;text-align:start;line-height:100%;writing-mode:lr-tb;text-anchor:start;fill:#ef6400;fill-opacity:1;stroke:none;stroke-width:1px;stroke-linecap:butt;stroke-linejoin:miter;stroke-opacity:1;font-family:Arial;-inkscape-font-specification:Arial" />
      <path
         id="text3180"
         d="M 647.645,193.46146 C 647.64496,199.23481 645.57527,203.86438 641.43593,207.35019 C 637.6233,210.45471 633.0482,212.00698 627.7106,212.007 C 622.48188,212.00698 618.07018,210.48194 614.47546,207.43189 C 610.49947,204.00054 608.51147,199.31651 608.51148,193.37977 L 619.21397,193.37977 C 619.21395,196.15751 620.03093,198.33613 621.66492,199.91564 C 623.081,201.33173 624.87837,202.03978 627.05701,202.0398 C 629.45347,202.03978 631.5504,201.2228 633.34779,199.58884 C 635.25405,197.73701 636.2072,195.31329 636.20723,192.31769 L 636.20723,185.61842 C 635.39022,187.57918 633.89241,189.10422 631.71382,190.19353 C 629.58964,191.28284 627.19315,191.8275 624.52436,191.8275 C 620.27603,191.8275 616.65407,190.57479 613.65847,188.06937 C 610.22714,185.1827 608.51147,181.20672 608.51148,176.14141 L 608.51148,147.46527 L 620.03095,147.46527 L 620.03095,174.42574 C 620.03093,179.81785 622.48188,182.51389 627.3838,182.51388 C 629.99813,182.51389 632.12228,181.75137 633.75628,180.22633 C 635.39022,178.7013 636.2072,176.76778 636.20723,174.42574 L 636.20723,147.46527 L 647.645,147.46527 L 647.645,193.46146"
         style="font-size:81.69838715px;font-style:normal;font-variant:normal;font-weight:normal;font-stretch:normal;text-align:start;line-height:100%;writing-mode:lr-tb;text-anchor:start;fill:#ef6400;fill-opacity:1;stroke:none;stroke-width:1px;stroke-linecap:butt;stroke-linejoin:miter;stroke-opacity:1;font-family:Arial;-inkscape-font-specification:Arial" />
    </g>
  </g>
</svg>
